<svg xmlns="http://www.w3.org/2000/svg" width="640.168" height="640.174" viewBox="0 0 640.168 640.174">
  <path id="owfinance" d="M560.412,246.7,441.367,269.83,541.9,202.03A73.624,73.624,0,1,0,438.14,98.265l-68.1,102L393.462,79.754a73.634,73.634,0,1,0-146.758,0l23.98,120.3L202.026,98.265A73.62,73.62,0,0,0,93.758,93.758h0a73.62,73.62,0,0,0,4.508,108.268l102,68.1L79.754,246.7A73.647,73.647,0,0,0,0,320.083H0a73.632,73.632,0,0,0,79.754,73.379l121.791-24.273L98.265,438.14a73.62,73.62,0,0,0-4.508,108.268h0A73.62,73.62,0,0,0,202.026,541.9l68.658-101.786-23.98,120.3a73.634,73.634,0,1,0,146.758,0L370.042,439.9l68.1,102A73.624,73.624,0,1,0,541.9,438.14L440.114,369.482l120.3,23.98a73.647,73.647,0,0,0,79.754-73.379h0A73.632,73.632,0,0,0,560.412,246.7ZM320.083,386.767a66.486,66.486,0,1,0-.01,0Z" transform="translate(0 0.003)" fill="#fff"/>
</svg>
